HIERARCHY
ROOT ui
{
	 OFFSET 0 0 0
	 CHANNELS 3 XPosition YPosition Z Position
	 EndSite
	 {
	 OFFSET 0 -1 0
	 }
}
ROOT li
{
	 OFFSET 0 0 0
	 CHANNELS 3 XPosition YPosition Z Position
	 EndSite
	 {
	 OFFSET 0 -1 0
	 }
}
ROOT ul
{
	 OFFSET 0 0 0
	 CHANNELS 3 XPosition YPosition Z Position
	 EndSite
	 {
	 OFFSET 0 -1 0
	 }
}
ROOT ll
{
	 OFFSET 0 0 0
	 CHANNELS 3 XPosition YPosition Z Position
	 EndSite
	 {
	 OFFSET 0 -1 0
	 }
}
ROOT tt
{
	 OFFSET 0 0 0
	 CHANNELS 3 XPosition YPosition Z Position
	 EndSite
	 {
	 OFFSET 0 -1 0
	 }
}
ROOT tb
{
	 OFFSET 0 0 0
	 CHANNELS 3 XPosition YPosition Z Position
	 EndSite
	 {
	 OFFSET 0 -1 0
	 }
}
ROOT td
{
	 OFFSET 0 0 0
	 CHANNELS 3 XPosition YPosition Z Position
	 EndSite
	 {
	 OFFSET 0 -1 0
	 }
}
ROOT v
{
	 OFFSET 0 0 0
	 CHANNELS 3 XPosition YPosition Z Position
	 EndSite
	 {
	 OFFSET 0 -1 0
	 }
}
ROOT bn
{
	 OFFSET 0 0 0
	 CHANNELS 3 XPosition YPosition Z Position
	 EndSite
	 {
	 OFFSET 0 -1 0
	 }
}
MOTION
Frames: 24
Frame Time: 0.002
0.0030585010051727294	-0.0018629390001296997	0		0.4840384521484375	-2.269262451171875	0		-1.0916942138671875	-0.03747824478149414	0		-0.6787966918945313	-2.3687431640625	0		1.73314306640625	-0.1899515380859375	0		3.25046435546875	0.17361170959472655	0		4.739640625	0.17159614562988282	0		5.58897509765625	0.1739303436279297	0		-0.3013304138183594	5.8710791015625	0		
-0.006148313999176026	0.007914505004882812	0		0.4346926574707031	-2.261830810546875	0		-1.0870223388671876	-0.034890106201171875	0		-0.71013232421875	-2.360566650390625	0		1.720912109375	-0.18119526672363281	0		3.245415771484375	0.19218568420410156	0		4.74337158203125	0.17695858764648437	0		5.58941455078125	0.17286097717285157	0		-0.28629681396484374	5.88046484375	0		
-0.002468579053878784	0.010470624923706054	0		0.46525921630859374	-2.260748291015625	0		-1.08232763671875	-0.03130699348449707	0		-0.71842919921875	-2.3507802734375	0		1.725600830078125	-0.17772650146484376	0		3.2606962890625	0.17041024780273437	0		4.74810888671875	0.18230398559570313	0		5.58985791015625	0.17179281616210937	0		-0.2854281311035156	5.88008349609375	0		
1.8084000796079635E-5	0.002049916982650757	0		0.4357622680664063	-2.26264697265625	0		-1.0857740478515625	-0.03558409881591797	0		-0.7090706176757813	-2.361290771484375	0		1.7421287841796875	-0.18345277404785157	0		3.27044189453125	0.17674005126953124	0		4.74463720703125	0.17579685974121093	0		5.59742822265625	0.1704521026611328	0		-0.284573974609375	5.87970654296875	0		
-0.004294160842895508	0.006757751941680908	0		0.486152587890625	-2.27088671875	0		-1.08517333984375	-0.03591908645629883	0		-0.7194209594726563	-2.35345458984375	0		1.73558935546875	-0.19177534484863282	0		3.257052978515625	0.17647698974609374	0		4.74038232421875	0.18332400512695313	0		5.59072265625	0.1697317352294922	0		-0.28374844360351564	5.87934130859375	0		
-0.029719148635864258	0.006840819835662842	0		0.43473358154296876	-2.26538037109375	0		-1.163626220703125	-0.036895771026611325	0		-0.7230028076171875	-2.357718994140625	0		1.7171561279296874	-0.1918744354248047	0		3.25763037109375	0.17599972534179686	0		4.7427216796875	0.16876089477539064	0		5.59112451171875	0.16876437377929687	0		-0.28296380615234373	5.87899267578125	0		
0.006636200904846191	-0.00410723876953125	0		0.4891268005371094	-2.26965185546875	0		-1.08407421875	-0.03653851699829101	0		-0.696779052734375	-2.37147216796875	0		1.72383251953125	-0.18337492370605468	0		3.2539462890625	0.16261933898925782	0		4.737361328125	0.1743603515625	0		5.59149951171875	0.16785008239746094	0		-0.28124664306640623	5.87764794921875	0		
-0.019722496032714844	0.005039038181304932	0		0.4437471008300781	-2.257197998046875	0		-1.0754561767578126	-0.028953182220458985	0		-0.7011168823242188	-2.356678955078125	0		1.7332579345703125	-0.18689791870117187	0		3.260963623046875	0.1930919647216797	0		4.740953125	0.17983872985839844	0		5.5947783203125	0.17898355102539062	0		-0.27958551025390627	5.87632763671875	0		
7.766519784927369E-4	0.008411604881286621	0		0.49193109130859375	-2.268316650390625	0		-1.0831590576171874	-0.0370667495727539	0		-0.7156875610351563	-2.3526865234375	0		1.724738037109375	-0.18408511352539061	0		3.245114990234375	0.1759788818359375	0		4.74728857421875	0.17330104064941407	0		5.59214599609375	0.16619671630859376	0		-0.28093106079101565	5.87808447265625	0		
-0.01804428482055664	-0.00351782488822937	0		0.4383022155761719	-2.2646640625	0		-1.0827786865234375	-0.03729000473022461	0		-0.6726414794921876	-2.368655029296875	0		1.718960693359375	-0.19329054260253906	0		3.254603271484375	0.1814676818847656	0		4.72971240234375	0.17520663452148438	0		5.5924140625	0.16545993041992188	0		-0.28036898803710936	5.8778369140625	0		
0.0033511478900909424	-1.0456100106239319E-4	0		0.48843649291992186	-2.27276025390625	0		-1.086500732421875	-0.040414749145507814	0		-0.719187255859375	-2.357056640625	0		1.719284912109375	-0.19356883239746095	0		3.25071630859375	0.16821363830566408	0		4.73414990234375	0.18076808166503905	0		5.58970751953125	0.1527910614013672	0		-0.27986175537109376	5.87761865234375	0		
-0.027277139663696288	0.0052315940856933595	0		0.43877716064453126	-2.265112548828125	0		-1.0821697998046875	-0.03764702987670898	0		-0.6952380981445313	-2.37264111328125	0		1.7244564208984374	-0.19990119934082032	0		3.250346435546875	0.18793453979492186	0		4.73929833984375	0.17234547424316407	0		5.5928427734375	0.1641555633544922	0		-0.41274530029296874	5.85872021484375	0		
0.03191697883605957	0.002052445888519287	0		0.4689761962890625	-2.26380712890625	0		-1.0819337158203124	-0.03777912521362305	0		-0.703881591796875	-2.36163134765625	0		1.730013916015625	-0.18120651245117186	0		3.251244873046875	0.16765802001953126	0		4.7426435546875	0.1779859313964844	0		5.5930078125	0.16358413696289062	0		-0.2780077209472656	5.87625830078125	0		
-0.022772558212280275	0.008865224838256835	0		0.4670734558105469	-2.265919921875	0		-1.081736083984375	-0.03788075637817383	0		-0.6807047729492187	-2.359141357421875	0		1.7389818115234374	-0.1945450439453125	0		3.255672119140625	0.18035659790039063	0		4.73974462890625	0.17176368713378906	0		5.59314599609375	0.16306887817382812	0		-0.2776341857910156	5.87613232421875	0		
0.029230199813842773	-0.0011353509426116942	0		0.46308810424804686	-2.270968017578125	0		-1.081571533203125	-0.037953968048095706	0		-0.7165498046875	-2.355604736328125	0		1.7201446533203124	-0.194371337890625	0		3.264824462890625	0.17900311279296874	0		4.73991552734375	0.1715227508544922	0		5.5932607421875	0.16261341857910155	0		-0.27828173828125	5.87705322265625	0		
-0.021607810974121094	6.687150001525879E-4	0		0.43721914672851564	-2.267608642578125	0		-1.0814354248046876	-0.03800181579589844	0		-0.684602783203125	-2.363215087890625	0		1.7202764892578124	-0.1944954833984375	0		3.26086328125	0.17290699768066406	0		4.74005712890625	0.17131637573242187	0		5.59335498046875	0.16221987915039063	0		-0.277984619140625	5.8769833984375	0		
0.029479158401489257	-0.001267261028289795	0		0.4393086242675781	-2.26570751953125	0		-1.156278564453125	-0.03472870635986328	0		-0.741524169921875	-2.361263671875	0		1.736052001953125	-0.2138660125732422	0		3.241757080078125	0.16010336303710937	0		4.73329541015625	0.1782647705078125	0		5.59758740234375	0.14441177368164063	0		-0.27576040649414063	5.87490283203125	0		
-0.00939119052886963	0.0013765510320663452	0		0.4454676208496094	-2.258854248046875	0		-1.0730986328125	-0.030175405502319334	0		-0.6905995483398437	-2.36816259765625	0		1.7432913818359375	-0.20505938720703126	0		3.26826220703125	0.1835444793701172	0		4.733388671875	0.17812721252441407	0		5.5993828125	0.18732681274414062	0		-0.24717990112304689	5.895388671875	0		
0.004639263153076172	-8.7950199842453E-4	0		0.4673665771484375	-2.26625732421875	0		-1.081169677734375	-0.03802802276611328	0		-0.7034716796875	-2.36193798828125	0		1.7205318603515625	-0.19470838928222656	0		3.23316455078125	0.17407756042480468	0		4.74857861328125	0.18476119995117188	0		5.59353759765625	0.16141407775878908	0		-0.27634219360351564	5.87588671875	0		
-0.017242137908935546	0.0035042591094970703	0		0.4892513427734375	-2.27364404296875	0		-1.08112451171875	-0.038008838653564456	0		-0.716357177734375	-2.35569970703125	0		1.716505615234375	-0.19866354370117187	0		3.261191650390625	0.17254168701171874	0		4.73552490234375	0.17891471862792968	0		5.593568359375	0.16126606750488282	0		-0.27718560791015623	5.87691015625	0		
0.009622456550598145	-0.005949473857879638	0		0.43734323120117186	-2.26773193359375	0		-1.0810997314453126	-0.037981101989746094	0		-0.7095883178710938	-2.368796142578125	0		1.7165283203125	-0.19867042541503907	0		3.24723828125	0.17375906372070313	0		4.74041259765625	0.1707847137451172	0		5.5935849609375	0.16117283630371093	0		-0.27708767700195314	5.87692822265625	0		
-0.021261695861816407	6.127409934997558E-4	0		0.4653084716796875	-2.26919921875	0		-1.08109326171875	-0.03794792556762695	0		-0.7055159301757813	-2.363836669921875	0		1.722427978515625	-0.20476531982421875	0		3.251472412109375	0.18668267822265625	0		4.7335439453125	0.17788755798339845	0		5.59774365234375	0.14365206909179687	0		-0.276046875	5.87593701171875	0		
0.0077605719566345216	0.002137974977493286	0		0.44343133544921876	-2.26078955078125	0		-1.15200390625	-0.03167683792114258	0		-0.7035016479492188	-2.361837890625	0		1.7224188232421875	-0.2047438201904297	0		3.25211669921875	0.16668199157714844	0		4.743517578125	0.17671974182128905	0		5.59358203125	0.1611337890625	0		-0.27602505493164065	5.87596875	0		
0.009602386474609375	-0.005861268043518066	0		0.49122824096679685	-2.271590087890625	0		-1.081120361328125	-0.037876243591308596	0		-0.7055579833984374	-2.363767578125	0		1.7165052490234376	-0.1986082763671875	0		3.261201416015625	0.17255426025390624	0		4.73351806640625	0.1779215087890625	0		5.593568359375	0.16118003845214843	0		-0.2760355224609375	5.87600341796875	0		
